<svg width="591" height="182" viewBox="0 0 591 182" fill="none" xmlns="http://www.w3.org/2000/svg">
<path fill-rule="evenodd" clip-rule="evenodd" d="M259.443 56.0422C253.737 56.0422 246.965 57.252 239.566 65.8305V41.8233C239.566 35.7586 234.644 30.8252 228.593 30.8252C222.542 30.8252 217.62 35.7586 217.62 41.8233V120.114C217.62 126.178 222.542 131.112 228.593 131.112C234.644 131.112 239.566 126.178 239.566 120.114V89.7277C239.566 80.9921 243.704 76.1687 251.245 76.1687C258.628 76.1687 262.516 80.8507 262.516 89.7277V120.114C262.516 126.178 267.438 131.112 273.489 131.112C279.54 131.112 284.462 126.178 284.462 120.114V83.3489C284.446 66.2547 275.104 56.0422 259.443 56.0422ZM322.462 56.5767C313.527 56.5767 306.441 57.7393 299.496 60.3475C295.891 61.6986 293.477 65.1866 293.477 69.0202C293.477 74.1422 297.537 78.1486 302.726 78.1486C303.792 78.1486 304.685 77.9915 305.908 77.583C310.125 76.2632 314.577 75.6348 319.546 75.6348C331.334 75.6348 333.843 82.1551 333.874 87.6698C329.783 86.3343 324.625 85.1088 317.43 85.1088C298.681 85.1088 287.928 93.703 287.928 108.708V108.975C287.928 122.534 298.086 131.646 313.197 131.646C321.709 131.646 328.528 129.054 333.968 123.743C334.893 127.624 338.608 131.128 344.314 131.128C350.318 131.128 355.021 126.477 355.021 120.538V88.1254C355.021 77.9287 352.356 70.0729 347.073 64.7938C341.618 59.3419 333.341 56.5767 322.462 56.5767ZM319.28 115.888C313.056 115.888 309.2 112.934 309.2 108.173V107.906C309.2 102.234 313.934 98.9978 322.195 98.9978C326.428 98.9978 330.645 99.8305 334.14 101.339V104.34C334.14 111.127 328.027 115.888 319.28 115.888ZM384.429 66.0199C390.103 59.3111 397.095 56.0431 405.748 56.0431C422.255 56.0431 438.95 68.9737 438.95 93.7036V93.9707C438.95 105.362 435.454 115.008 428.854 121.89C422.819 128.19 414.621 131.647 405.748 131.647C397.205 131.647 390.417 128.725 384.538 122.503V141.357C384.538 147.421 379.616 152.355 373.565 152.355C367.514 152.355 362.592 147.421 362.592 141.357V67.5753C362.592 61.5107 367.514 56.5773 373.565 56.5773C379.099 56.5773 383.676 60.6937 384.429 66.0199ZM417.019 93.7036C417.019 83.0355 409.949 74.9755 400.575 74.9755C391.138 74.9755 384.272 82.847 384.272 93.7036V93.9707C384.272 104.827 391.122 112.699 400.575 112.699C410.106 112.699 417.019 104.827 417.019 93.9707V93.7036ZM487.169 56.0431C478.516 56.0431 471.524 59.3111 465.85 66.0199C465.097 60.6937 460.52 56.5773 454.986 56.5773C448.935 56.5773 444.013 61.5107 444.013 67.5753V141.357C444.013 147.421 448.935 152.355 454.986 152.355C461.037 152.355 465.959 147.421 465.959 141.357V122.503C471.838 128.725 478.626 131.647 487.169 131.647C496.042 131.647 504.24 128.19 510.275 121.89C516.875 115.008 520.371 105.362 520.371 93.9707V93.7036C520.371 68.9737 503.676 56.0431 487.169 56.0431ZM481.996 74.9755C491.37 74.9755 498.44 83.0355 498.44 93.7036V93.9707C498.44 104.827 491.527 112.699 481.996 112.699C472.543 112.699 465.693 104.827 465.693 93.9707V93.7036C465.693 82.847 472.559 74.9755 481.996 74.9755ZM569.327 64.8725C571.365 59.4364 575.002 56.5769 579.846 56.5769C585.693 56.5769 590.286 61.0546 590.27 66.7422C590.27 68.3919 589.737 70.7801 589.267 71.8799L564.515 131.458C558.291 146.557 551.801 151.914 539.715 151.914C535.451 151.914 532.175 151.349 528.413 149.998C525.826 149.055 521.468 146.604 521.468 140.791C521.468 135.072 525.967 131.662 530.309 131.662C532.034 131.662 533.068 131.961 533.899 132.244C535.608 132.778 536.549 132.998 537.85 132.998C541.142 132.998 542.521 132.464 544.183 129.274L544.684 128.08L520.606 72.1627C520.057 70.7801 519.477 68.6433 519.477 67.1507C519.477 61.1175 524.133 56.5611 530.309 56.5611C535.404 56.5611 538.853 59.2321 540.828 64.7311L555.328 103.806L569.327 64.8725Z" fill="#323030"/>
<path d="M157.341 46.1851V110.449C157.341 135.955 136.583 156.634 110.98 156.634H106.291L82.3439 180.474C81.406 181.408 80.1087 182 78.6706 182C77.342 182 76.1384 181.517 75.2162 180.708L74.8098 180.303L74.7942 180.287L51.0507 156.634H46.3458C20.7579 156.634 0 135.955 0 110.449V46.1851C0 20.679 20.7579 0 46.3614 0H110.98C136.583 0 157.341 20.679 157.341 46.1851Z" fill="#FFD666"/>
<path d="M36.6337 89.025C32.0694 89.025 29.4679 94.2062 32.1161 97.9474C42.413 112.521 59.4396 122.022 78.6782 122.022C97.9168 122.022 114.928 112.505 125.225 97.9474C127.873 94.2062 125.271 89.025 120.707 89.025H36.6337Z" fill="white"/>
<path d="M63.3655 66.9706H35.8239V53.1332C35.8239 45.4944 41.9927 39.2957 49.5947 39.2957C57.1967 39.2957 63.3655 45.4944 63.3655 53.1332V66.9706Z" fill="white"/>
<path d="M121.534 66.9706H93.9921V53.1332C93.9921 45.4944 100.161 39.2957 107.763 39.2957C115.365 39.2957 121.534 45.4944 121.534 53.1332V66.9706Z" fill="white"/>
</svg>
